<?xml version="1.0" encoding="UTF-8" standalone="no"?>
<!-- Created with Inkscape (http://www.inkscape.org/) -->

<svg
   xmlns:dc="http://purl.org/dc/elements/1.1/"
   xmlns:cc="http://creativecommons.org/ns#"
   xmlns:rdf="http://www.w3.org/1999/02/22-rdf-syntax-ns#"
   xmlns:svg="http://www.w3.org/2000/svg"
   xmlns="http://www.w3.org/2000/svg"
   xmlns:sodipodi="http://sodipodi.sourceforge.net/DTD/sodipodi-0.dtd"
   xmlns:inkscape="http://www.inkscape.org/namespaces/inkscape"
   width="48"
   height="48"
   viewBox="0 0 48.000003 48.000004"
   id="svg2"
   version="1.1"
   inkscape:version="0.91 r13725"
   sodipodi:docname="ic_launcher.svg"
   inkscape:export-filename="/home/david/AndroidStudioProjects/wizard-pager/app/src/main/ic_launcher-web.png"
   inkscape:export-xdpi="960"
   inkscape:export-ydpi="960">
  <defs
     id="defs4">
    <filter
       inkscape:collect="always"
       style="color-interpolation-filters:sRGB"
       id="filter4355"
       x="-0.0228"
       width="1.0456"
       y="-0.03135"
       height="1.0627">
      <feGaussianBlur
         inkscape:collect="always"
         stdDeviation="0.418"
         id="feGaussianBlur4357" />
    </filter>
    <filter
       inkscape:collect="always"
       style="color-interpolation-filters:sRGB"
       id="filter4414"
       x="-0.021106598"
       width="1.0422132"
       y="-0.21254965"
       height="1.4250993">
      <feGaussianBlur
         inkscape:collect="always"
         stdDeviation="0.35442653"
         id="feGaussianBlur4416" />
    </filter>
    <clipPath
       clipPathUnits="userSpaceOnUse"
       id="clipPath4492">
      <path
         style="display:inline;opacity:1;fill:#f6851f;fill-opacity:1;fill-rule:evenodd;stroke:none;stroke-width:1px;stroke-linecap:butt;stroke-linejoin:miter;stroke-opacity:1"
         d="m 24,1012.362 c -21.9999924,0 -22,13 -22,13 10e-8,0.5 0.5000001,1 1,1 l 1.984375,0 c -0.988858,0.011 -1.4789356,1.0056 -0.8574219,2 L 4,1028.362 c -0.5539998,0 -1,0.446 -1,1 0,0.554 0.4460002,1 1,1 l -1,0 c -0.5539999,0 -1,0.446 -1,1 0,0.554 0.4460001,1 1,1 -0.5539999,0 -1,0.446 -1,1 0,0.554 0.4460001,1 1,1 0,0 -1.9999905,10 21,10 22.999995,0 21,-10 21,-10 0.554,0 1,-0.446 1,-1 0,-0.554 -0.446,-1 -1,-1 0.554,0 1,-0.446 1,-1 0,-0.554 -0.446,-1 -1,-1 l -1,0 c 0.554,0 1,-0.446 1,-1 0,-0.554 -0.446,-1 -1,-1 l -0.126953,0 c 0,0 0.002,-0 0.002,-0 0.61797,-0.9892 0.133903,-1.9759 -0.843797,-1.998 l 1.96875,0 c 0.5,0 0.999977,-0.5 1,-1 0,0 -6e-6,-13 -22,-13 z m -6,15.9961 c 0.01102,0 0.02029,0 0.03125,0 l -0.09375,0 c 0.02209,-5e-4 0.03964,-0 0.0625,-0 z m 12,0 c 0.01143,0 0.02002,0 0.03125,0 l -0.04687,0 c 0.0055,0 0.01011,-0 0.01563,-0 z"
         id="path4494"
         inkscape:connector-curvature="0" />
    </clipPath>
    <filter
       inkscape:collect="always"
       style="color-interpolation-filters:sRGB"
       id="filter4596"
       x="-0.022936363"
       width="1.0458727"
       y="-0.072085717"
       height="1.1441714">
      <feGaussianBlur
         inkscape:collect="always"
         stdDeviation="0.42050003"
         id="feGaussianBlur4598" />
    </filter>
    <clipPath
       clipPathUnits="userSpaceOnUse"
       id="clipPath4616">
      <path
         style="display:inline;opacity:1;fill:#155f30;fill-opacity:1;fill-rule:evenodd;stroke:none;stroke-width:0.10000001;stroke-linecap:butt;stroke-linejoin:miter;stroke-miterlimit:4;stroke-dasharray:none;stroke-opacity:1"
         d="m 42.999971,21.9981 c -0.999988,-10e-5 -10.000004,0 -19.000001,0 -8.999996,10e-5 -17.9999857,0 -19.0000004,0 -2.0000296,0 -1.9999991,4.000001 5.0000003,4.000001 6.9999991,0 5.9999731,-2.001701 8.0000001,-2.002001 2.000027,-3e-4 3.000002,2.002001 6,2.002001 2.999998,0 4,-2.000001 6.000001,-2.000001 2,0 1,2.000001 8,2.000001 7,0 6.999977,-4.001701 5,-4.002001 z"
         id="path4618"
         inkscape:connector-curvature="0" />
    </clipPath>
    <filter
       inkscape:collect="always"
       style="color-interpolation-filters:sRGB"
       id="filter4666"
       x="-0.023885715"
       width="1.0477714"
       y="-0.50159979"
       height="2.0031996">
      <feGaussianBlur
         inkscape:collect="always"
         stdDeviation="0.41800003"
         id="feGaussianBlur4668" />
    </filter>
    <clipPath
       clipPathUnits="userSpaceOnUse"
       id="clipPath4685">
      <path
         style="display:inline;opacity:1;fill:#21190f;fill-opacity:1;stroke:none;stroke-width:0;stroke-linejoin:miter;stroke-miterlimit:4;stroke-dasharray:none;stroke-opacity:1"
         d="m 2.9999696,26 c -0.5539999,0 -1.0000001,0.446 -1.0000001,1 0,0.554 0.4460002,1 1.0000001,1 l 21.0000014,0 21.000002,0 c 0.554,0 1,-0.446 1,-1 0,-0.554 -0.446,-1 -1,-1 L 23.999971,26 2.9999696,26 Z"
         id="path4687"
         inkscape:connector-curvature="0" />
    </clipPath>
    <filter
       inkscape:collect="always"
       style="color-interpolation-filters:sRGB"
       id="filter4414-8"
       x="-0.021106599"
       width="1.0422132"
       y="-0.21254966"
       height="1.4250993">
      <feGaussianBlur
         inkscape:collect="always"
         stdDeviation="0.35442653"
         id="feGaussianBlur4416-3" />
    </filter>
    <filter
       inkscape:collect="always"
       style="color-interpolation-filters:sRGB"
       id="filter4803"
       x="-0.02565"
       width="1.0513"
       y="-0.20520001"
       height="1.4104">
      <feGaussianBlur
         inkscape:collect="always"
         stdDeviation="0.42750002"
         id="feGaussianBlur4805" />
    </filter>
    <clipPath
       clipPathUnits="userSpaceOnUse"
       id="clipPath4807">
      <path
         style="display:inline;opacity:1;fill:#f6851f;fill-opacity:1;fill-rule:evenodd;stroke:none;stroke-width:1px;stroke-linecap:butt;stroke-linejoin:miter;stroke-opacity:1"
         d="m 3,26 c -0.5539999,0 -1,0.446 -1,1 0,0.554 0.4460001,1 1,1 -0.5539999,0 -1,0.446 -1,1 0,0.554 0.4460001,1 1,1 0,0 -1.9999905,10 21,10 22.999995,0 21,-10 21,-10 0.554,0 1,-0.446 1,-1 0,-0.554 -0.446,-1 -1,-1 0.554,0 1,-0.446 1,-1 0,-0.554 -0.446,-1 -1,-1 L 24,26 3,26 Z"
         id="path4809"
         inkscape:connector-curvature="0" />
    </clipPath>
  </defs>
  <sodipodi:namedview
     id="base"
     pagecolor="#ffffff"
     bordercolor="#666666"
     borderopacity="1.0"
     inkscape:pageopacity="0.0"
     inkscape:pageshadow="2"
     inkscape:zoom="19.145833"
     inkscape:cx="24"
     inkscape:cy="24"
     inkscape:document-units="px"
     inkscape:current-layer="layer2"
     showgrid="true"
     units="px"
     inkscape:window-width="1855"
     inkscape:window-height="1056"
     inkscape:window-x="65"
     inkscape:window-y="24"
     inkscape:window-maximized="1">
    <inkscape:grid
       type="xygrid"
       id="grid4136"
       spacingx="0.25000001"
       spacingy="0.25000001"
       empspacing="4"
       visible="false" />
  </sodipodi:namedview>
  <metadata
     id="metadata7">
    <rdf:RDF>
      <cc:Work
         rdf:about="">
        <dc:format>image/svg+xml</dc:format>
        <dc:type
           rdf:resource="http://purl.org/dc/dcmitype/StillImage" />
        <dc:title></dc:title>
      </cc:Work>
    </rdf:RDF>
  </metadata>
  <g
     inkscape:groupmode="layer"
     id="layer3"
     inkscape:label="Shadow"
     style="display:inline">
    <path
       style="display:inline;opacity:0.5;fill:#000000;fill-opacity:1;fill-rule:evenodd;stroke:none;stroke-width:1px;stroke-linecap:butt;stroke-linejoin:miter;stroke-opacity:1;filter:url(#filter4355)"
       d="m 24,8.4998019 c -21.9999924,0 -22,12.9999991 -22,12.9999991 10e-8,0.5 0.5000001,1 1,1 l 1.984375,0 c -0.9895797,0.01108 -1.4810146,1.004859 -0.8574219,2 L 4,24.499801 c -0.5539998,0 -1,0.446 -1,1 0,0.554 0.4460002,1 1,1 l -1,0 c -0.5539999,0 -1,0.446 -1,1 0,0.554 0.4460001,1 1,1 -0.5539999,0 -1,0.446 -1,1 0,0.554 0.4460001,1 1,1 0,0 -1.9999905,10 21,10 22.999995,0 21,-10 21,-10 0.554,0 1,-0.446 1,-1 0,-0.554 -0.446,-1 -1,-1 0.554,0 1,-0.446 1,-1 0,-0.554 -0.446,-1 -1,-1 l -1,0 c 0.554,0 1,-0.446 1,-1 0,-0.554 -0.446,-1 -1,-1 l -0.126953,0 c 0.620087,-0.990015 0.136621,-1.977864 -0.841797,-2 l 1.96875,0 c 0.5,0 0.999977,-0.5 1,-1 0,0 -6e-6,-12.9999991 -22,-12.9999991 z M 18,24.495895 c 0.01102,-2e-6 0.02029,0.0038 0.03125,0.0039 l -0.09375,0 c 0.02209,-5.2e-4 0.03964,-0.0039 0.0625,-0.0039 z m 12,0.002 c 0.01143,0 0.02002,0.0018 0.03125,0.002 l -0.04687,0 c 0.0055,-3e-5 0.01011,-0.002 0.01563,-0.002 z"
       id="path4249-7"
       inkscape:connector-curvature="0" />
  </g>
  <g
     inkscape:label="Burger"
     inkscape:groupmode="layer"
     id="layer1"
     transform="translate(0,-1004.3622)"
     style="display:inline">
    <path
       style="opacity:1;fill:#f6851f;fill-opacity:1;fill-rule:evenodd;stroke:none;stroke-width:1px;stroke-linecap:butt;stroke-linejoin:miter;stroke-opacity:1"
       d="m 2.9999695,1034.3622 c 0,0 -1.9999594,10 21.0000315,10 22.999993,0 20.999968,-10 20.999968,-10 l -21,0 z"
       id="path4326"
       inkscape:connector-curvature="0"
       sodipodi:nodetypes="csccc" />
    <path
       style="opacity:1;fill:#21190f;fill-opacity:1;stroke:none;stroke-width:0;stroke-linejoin:miter;stroke-miterlimit:4;stroke-dasharray:none;stroke-opacity:1"
       d="m 2.9999695,1032.3622 c -0.5539998,0 -1,0.446 -1,1 0,0.554 0.4460002,1 1,1 l 20.9999995,0 21,0 c 0.554,0 1,-0.446 1,-1 0,-0.554 -0.446,-1 -1,-1 l -21,0 -20.9999995,0 z"
       id="path4320"
       inkscape:connector-curvature="0" />
    <path
       style="opacity:1;fill:#21190f;fill-opacity:1;stroke:none;stroke-width:0;stroke-linejoin:miter;stroke-miterlimit:4;stroke-dasharray:none;stroke-opacity:1"
       d="m 2.9999695,1030.3622 c -0.5539998,0 -1,0.446 -1,1 0,0.554 0.4460002,1 1,1 l 20.9999995,0 21,0 c 0.554,0 1,-0.446 1,-1 0,-0.554 -0.446,-1 -1,-1 l -21,0 -20.9999995,0 z"
       id="path4317"
       inkscape:connector-curvature="0" />
  </g>
  <g
     inkscape:groupmode="layer"
     id="layer7"
     inkscape:label="Salat Bottom"
     style="display:inline">
    <path
       transform="translate(-1.2760487e-8,-997.36188)"
       style="display:inline;opacity:1;fill:#000000;fill-opacity:1;fill-rule:evenodd;stroke:none;stroke-width:0.10000001;stroke-linecap:butt;stroke-linejoin:miter;stroke-miterlimit:4;stroke-dasharray:none;stroke-opacity:1;filter:url(#filter4414-8)"
       d="m 42.999971,1026.3602 c -0.999988,-10e-5 -10.000004,0 -19.000001,0 -8.999996,10e-5 -17.9999857,0 -19.0000004,0 -2.0000296,0 -1.9999991,4 5.0000003,4 6.9999991,0 5.9999731,-2.0017 8.0000001,-2.002 2.000027,-3e-4 3.000002,2.002 6,2.002 2.999998,0 4,-2 6.000001,-2 2,0 1,2 8,2 7,0 6.999977,-4.0017 5,-4.002 z"
       id="path4308-6-5"
       inkscape:connector-curvature="0"
       clip-path="none" />
    <path
       style="display:inline;opacity:1;fill:#155f30;fill-opacity:1;fill-rule:evenodd;stroke:none;stroke-width:0.10000001;stroke-linecap:butt;stroke-linejoin:miter;stroke-miterlimit:4;stroke-dasharray:none;stroke-opacity:1"
       d="m 42.999971,28.998224 c -0.999988,-10e-5 -10.000004,0 -19.000001,0 -8.999996,10e-5 -17.9999854,0 -19.0000002,0 -2.0000295,0 -1.999999,4 5.0000003,4 6.9999989,0 5.9999729,-2.0017 7.9999999,-2.002 2.000027,-3e-4 3.000002,2.002 6,2.002 2.999998,0 4,-2 6.000001,-2 2,0 1,2 8,2 7.000001,0 6.999978,-4.0017 5,-4.002 z"
       id="path4308-2"
       inkscape:connector-curvature="0" />
  </g>
  <g
     inkscape:groupmode="layer"
     id="layer8"
     inkscape:label="Cheese"
     style="display:inline">
    <path
       style="display:inline;opacity:1;fill:#000000;fill-opacity:1;fill-rule:evenodd;stroke:none;stroke-width:1px;stroke-linecap:butt;stroke-linejoin:miter;stroke-opacity:1;filter:url(#filter4803)"
       d="m 3.9999695,26.0002 c 0,0 16.0000065,2.0001 20.0000015,5 4.000004,-2.9999 20.000001,-5 20.000001,-5 l -20.000001,0 -20.0000015,0 z"
       id="path4314-3"
       inkscape:connector-curvature="0"
       clip-path="url(#clipPath4807)" />
    <path
       transform="translate(0,-1004.362)"
       style="display:inline;opacity:1;fill:#f6931e;fill-opacity:1;fill-rule:evenodd;stroke:none;stroke-width:1px;stroke-linecap:butt;stroke-linejoin:miter;stroke-opacity:1"
       d="m 3.9999695,1030.3622 c 0,0 16.0000055,2.0001 19.9999995,5 4.000004,-2.9999 20,-5 20,-5 l -20,0 -19.9999995,0 z"
       id="path4314"
       inkscape:connector-curvature="0" />
  </g>
  <g
     inkscape:groupmode="layer"
     id="layer6"
     inkscape:label="Ketchup"
     style="display:inline">
    <path
       style="display:inline;opacity:1;fill:#000000;fill-opacity:1;stroke:none;stroke-width:0;stroke-linejoin:miter;stroke-miterlimit:4;stroke-dasharray:none;stroke-opacity:1;filter:url(#filter4666)"
       d="m 3.9999696,24.0001 c -0.5539999,0 -1.0000001,0.446 -1.0000001,1.000001 0,0.554 0.4460002,1 1.0000001,1 l 20.0000004,0 20.000001,0 c 0.554,0 1.000001,-0.446 1.000001,-1 0,-0.554001 -0.446001,-1.000001 -1.000001,-1.000001 l -20.000001,0 -20.0000004,0 z"
       id="path4311-9"
       inkscape:connector-curvature="0"
       clip-path="url(#clipPath4685)" />
    <path
       transform="translate(0,-1004.3621)"
       style="display:inline;opacity:1;fill:#cd2323;fill-opacity:1;stroke:none;stroke-width:0;stroke-linejoin:miter;stroke-miterlimit:4;stroke-dasharray:none;stroke-opacity:1"
       d="m 3.9999695,1028.3622 c -0.5539998,0 -1,0.446 -1,1 0,0.554 0.4460002,1 1,1 l 19.9999995,0 20,0 c 0.554,0 1,-0.446 1,-1 0,-0.554 -0.446,-1 -1,-1 l -20,0 -19.9999995,0 z"
       id="path4311"
       inkscape:connector-curvature="0" />
  </g>
  <g
     inkscape:groupmode="layer"
     id="layer4"
     inkscape:label="Salad Above"
     style="display:inline">
    <path
       transform="translate(0,-1004.362)"
       style="display:inline;opacity:1;fill:#000000;fill-opacity:1;fill-rule:evenodd;stroke:none;stroke-width:0.10000001;stroke-linecap:butt;stroke-linejoin:miter;stroke-miterlimit:4;stroke-dasharray:none;stroke-opacity:1;filter:url(#filter4414)"
       d="m 42.999971,1026.3602 c -0.999988,-10e-5 -10.000004,0 -19.000001,0 -8.999996,10e-5 -17.9999857,0 -19.0000004,0 -2.0000296,0 -1.9999991,4 5.0000003,4 6.9999991,0 5.9999731,-2.0017 8.0000001,-2.002 2.000027,-3e-4 3.000002,2.002 6,2.002 2.999998,0 4,-2 6.000001,-2 2,0 1,2 8,2 7,0 6.999977,-4.0017 5,-4.002 z"
       id="path4308-6"
       inkscape:connector-curvature="0"
       clip-path="url(#clipPath4492)" />
    <path
       transform="translate(0,-1004.3621)"
       style="display:inline;opacity:1;fill:#155f30;fill-opacity:1;fill-rule:evenodd;stroke:none;stroke-width:0.10000001;stroke-linecap:butt;stroke-linejoin:miter;stroke-miterlimit:4;stroke-dasharray:none;stroke-opacity:1"
       d="m 42.999969,1026.3602 c -0.999988,-10e-5 -10.000004,0 -19,0 -8.999996,10e-5 -17.9999848,0 -18.9999995,0 -2.0000294,0 -1.9999989,4 5,4 6.9999985,0 5.9999725,-2.0017 7.9999995,-2.002 2.000027,-3e-4 3.000002,2.002 6,2.002 2.999998,0 4,-2 6,-2 2,0 1,2 8,2 7,0 6.999977,-4.0017 5,-4.002 z"
       id="path4308"
       inkscape:connector-curvature="0" />
  </g>
  <g
     inkscape:groupmode="layer"
     id="layer5"
     inkscape:label="Bread Above"
     style="display:inline">
    <path
       style="display:inline;opacity:1;fill:#000000;fill-opacity:1;fill-rule:evenodd;stroke:none;stroke-width:1px;stroke-linecap:butt;stroke-linejoin:miter;stroke-opacity:1;filter:url(#filter4596)"
       d="m 23.999971,8.0002005 c -21.9999937,0 -22.0000015,13.0000005 -22.0000015,13.0000005 1e-7,0.5 0.5000002,1 1.0000001,1 l 21.0000014,0 21.000002,0 c 0.5,0 0.999977,-0.5 1,-1 0,0 -7e-6,-13.0000005 -22.000002,-13.0000005 z"
       id="path4249-75"
       inkscape:connector-curvature="0"
       clip-path="url(#clipPath4616)" />
    <path
       transform="translate(0,-1004.362)"
       style="display:inline;opacity:1;fill:#f6851f;fill-opacity:1;fill-rule:evenodd;stroke:none;stroke-width:1px;stroke-linecap:butt;stroke-linejoin:miter;stroke-opacity:1"
       d="m 23.999969,1012.3622 c -21.9999917,0 -21.9999995,13 -21.9999995,13 1e-7,0.5 0.5000002,1 1,1 l 20.9999995,0 21,0 c 0.5,0 0.999977,-0.5 1,-1 0,0 -7e-6,-13 -22,-13 z"
       id="path4249"
       inkscape:connector-curvature="0" />
    <ellipse
       style="display:inline;opacity:0.5;fill:#000000;fill-opacity:1;stroke:none;stroke-width:0.1;stroke-linejoin:miter;stroke-miterlimit:4;stroke-dasharray:none;stroke-opacity:1"
       id="path4375"
       cx="10.000001"
       cy="13.499982"
       rx="1"
       ry="0.5" />
    <ellipse
       transform="translate(0,-1004.362)"
       style="display:inline;opacity:0.5;fill:#000000;fill-opacity:1;stroke:none;stroke-width:0.1;stroke-linejoin:miter;stroke-miterlimit:4;stroke-dasharray:none;stroke-opacity:1"
       id="path4377"
       cx="15.000001"
       cy="1014.8622"
       rx="1"
       ry="0.5" />
    <ellipse
       transform="translate(0,-1004.362)"
       style="display:inline;opacity:0.5;fill:#000000;fill-opacity:1;stroke:none;stroke-width:0.1;stroke-linejoin:miter;stroke-miterlimit:4;stroke-dasharray:none;stroke-opacity:1"
       id="path4379"
       cx="19.000002"
       cy="1016.8622"
       rx="1"
       ry="0.5" />
    <ellipse
       transform="translate(0,-1004.362)"
       style="display:inline;opacity:0.5;fill:#000000;fill-opacity:1;stroke:none;stroke-width:0.1;stroke-linejoin:miter;stroke-miterlimit:4;stroke-dasharray:none;stroke-opacity:1"
       id="path4381"
       cx="21.000002"
       cy="1013.8622"
       rx="1"
       ry="0.5" />
    <ellipse
       transform="translate(0,-1004.362)"
       style="display:inline;opacity:0.5;fill:#000000;fill-opacity:1;stroke:none;stroke-width:0.1;stroke-linejoin:miter;stroke-miterlimit:4;stroke-dasharray:none;stroke-opacity:1"
       id="path4383"
       cx="29.000002"
       cy="1016.8622"
       rx="1"
       ry="0.5" />
    <ellipse
       style="display:inline;opacity:0.5;fill:#000000;fill-opacity:1;stroke:none;stroke-width:0.1;stroke-linejoin:miter;stroke-miterlimit:4;stroke-dasharray:none;stroke-opacity:1"
       id="path4385"
       cx="27"
       cy="9.49998"
       rx="1"
       ry="0.5" />
    <ellipse
       transform="translate(0,-1004.362)"
       style="display:inline;opacity:0.5;fill:#000000;fill-opacity:1;stroke:none;stroke-width:0.1;stroke-linejoin:miter;stroke-miterlimit:4;stroke-dasharray:none;stroke-opacity:1"
       id="path4387"
       cx="33.000004"
       cy="1014.8622"
       rx="1"
       ry="0.5" />
    <ellipse
       style="display:inline;opacity:0.5;fill:#000000;fill-opacity:1;stroke:none;stroke-width:0.1;stroke-linejoin:miter;stroke-miterlimit:4;stroke-dasharray:none;stroke-opacity:1"
       id="path4389"
       cx="38"
       cy="13.499981"
       rx="1"
       ry="0.5" />
  </g>
  <g
     inkscape:groupmode="layer"
     id="layer2"
     inkscape:label="Front Shadow"
     style="display:inline;opacity:0.1" />
</svg>
